<svg width="38" height="33" viewBox="0 0 38 33" fill="none" xmlns="http://www.w3.org/2000/svg">
<rect x="1.78906" y="2.29395" width="34.0457" height="28.1681" fill="white"/>
<path d="M0.359375 28.1379C0.359375 29.3799 0.852753 30.571 1.73097 31.4492C2.60919 32.3274 3.80031 32.8208 5.0423 32.8208H33.1399C34.3819 32.8208 35.573 32.3274 36.4512 31.4492C37.3294 30.571 37.8228 29.3799 37.8228 28.1379V5.50373C37.8228 4.26174 37.3294 3.07062 36.4512 2.1924C35.573 1.31418 34.3819 0.820801 33.1399 0.820801H5.0423C3.80031 0.820801 2.60919 1.31418 1.73097 2.1924C0.852753 3.07062 0.359375 4.26174 0.359375 5.50373L0.359375 28.1379ZM22.9935 4.72324C22.9862 5.00048 22.9031 5.27042 22.7531 5.50373C22.6229 5.73998 22.4317 5.93698 22.1994 6.07417C21.9671 6.21137 21.7023 6.28374 21.4325 6.28374C21.1628 6.28374 20.8979 6.21137 20.6657 6.07417C20.4334 5.93698 20.2422 5.73998 20.112 5.50373C19.962 5.27042 19.8789 5.00048 19.8716 4.72324C19.8786 4.44596 19.9618 4.17595 20.112 3.94275C20.2422 3.7065 20.4334 3.5095 20.6657 3.37231C20.8979 3.23511 21.1628 3.16274 21.4325 3.16274C21.7023 3.16274 21.9671 3.23511 22.1994 3.37231C22.4317 3.5095 22.6229 3.7065 22.7531 3.94275C22.9033 4.17595 22.9865 4.44596 22.9935 4.72324ZM28.4569 4.72324C28.4496 5.00048 28.3665 5.27042 28.2165 5.50373C28.0863 5.73998 27.8951 5.93698 27.6628 6.07417C27.4306 6.21137 27.1657 6.28374 26.896 6.28374C26.6262 6.28374 26.3614 6.21137 26.1291 6.07417C25.8968 5.93698 25.7056 5.73998 25.5754 5.50373C25.4254 5.27042 25.3423 5.00048 25.335 4.72324C25.342 4.44596 25.4252 4.17595 25.5754 3.94275C25.7056 3.7065 25.8968 3.5095 26.1291 3.37231C26.3614 3.23511 26.6262 3.16274 26.896 3.16274C27.1657 3.16274 27.4306 3.23511 27.6628 3.37231C27.8951 3.5095 28.0863 3.7065 28.2165 3.94275C28.3667 4.17595 28.4499 4.44596 28.4569 4.72324ZM33.9203 4.72324C33.9131 5.00048 33.8299 5.27042 33.68 5.50373C33.5497 5.73998 33.3585 5.93698 33.1262 6.07417C32.894 6.21137 32.6291 6.28374 32.3594 6.28374C32.0896 6.28374 31.8248 6.21137 31.5925 6.07417C31.3602 5.93698 31.169 5.73998 31.0388 5.50373C30.8888 5.27042 30.8057 5.00048 30.7984 4.72324C30.8055 4.44596 30.8886 4.17595 31.0388 3.94275C31.1711 3.70823 31.3627 3.51264 31.5946 3.37564C31.8264 3.23864 32.0901 3.16505 32.3594 3.16226C32.6593 3.16363 32.9525 3.25136 33.2038 3.41496C33.4552 3.57857 33.6541 3.81112 33.7767 4.0848C33.8698 4.28488 33.9187 4.5026 33.9203 4.72324ZM3.48133 9.01436C3.48133 8.91086 3.52244 8.8116 3.59563 8.73842C3.66881 8.66523 3.76807 8.62412 3.87157 8.62412H34.3106C34.4141 8.62412 34.5134 8.66523 34.5865 8.73842C34.6597 8.8116 34.7008 8.91086 34.7008 9.01436V28.1363C34.7008 28.5503 34.5364 28.9474 34.2436 29.2401C33.9509 29.5328 33.5539 29.6973 33.1399 29.6973H5.0423C4.6283 29.6973 4.23126 29.5328 3.93853 29.2401C3.64579 28.9474 3.48133 28.5503 3.48133 28.1363V9.01436Z" fill="#4A3AFF"/>
<path d="M10.9623 23.7784C11.255 24.071 11.6519 24.2354 12.0659 24.2354C12.4798 24.2354 12.8767 24.071 13.1695 23.7784L17.0719 19.876C17.3645 19.5832 17.5289 19.1863 17.5289 18.7724C17.5289 18.3584 17.3645 17.9615 17.0719 17.6687L13.1695 13.7663C12.8751 13.482 12.4808 13.3246 12.0715 13.3282C11.6622 13.3317 11.2707 13.4959 10.9813 13.7853C10.6918 14.0747 10.5277 14.4663 10.5241 14.8755C10.5206 15.2848 10.6779 15.6791 10.9623 15.9735L13.4848 18.4961C13.5211 18.5323 13.55 18.5754 13.5696 18.6228C13.5893 18.6702 13.5994 18.721 13.5994 18.7724C13.5994 18.8237 13.5893 18.8745 13.5696 18.9219C13.55 18.9693 13.5211 19.0124 13.4848 19.0487L10.9623 21.5712C10.6696 21.8639 10.5052 22.2609 10.5052 22.6748C10.5052 23.0887 10.6696 23.4857 10.9623 23.7784Z" fill="#4A3AFF"/>
<path d="M20.6521 24.2357H26.896C27.31 24.2357 27.7071 24.0713 27.9998 23.7785C28.2926 23.4858 28.457 23.0887 28.457 22.6747C28.457 22.2607 28.2926 21.8637 27.9998 21.571C27.7071 21.2782 27.31 21.1138 26.896 21.1138H20.6521C20.2381 21.1138 19.8411 21.2782 19.5484 21.571C19.2556 21.8637 19.0912 22.2607 19.0912 22.6747C19.0912 23.0887 19.2556 23.4858 19.5484 23.7785C19.8411 24.0713 20.2381 24.2357 20.6521 24.2357Z" fill="#4A3AFF"/>
</svg>
