<svg width="36" height="29" viewBox="0 0 36 29" fill="none" xmlns="http://www.w3.org/2000/svg">
<path d="M35.257 12.7659C35.2507 11.6687 34.9065 10.6001 34.2712 9.70542C33.6359 8.81078 32.7404 8.1336 31.7066 7.76604C31.5048 7.69311 31.2885 7.66987 31.0759 7.69829C30.8633 7.72672 30.6606 7.80597 30.4852 7.92933C30.3097 8.0527 30.1665 8.21654 30.0678 8.40698C29.9691 8.59742 29.9177 8.80885 29.918 9.02336L29.9367 19.2314C29.9372 19.4454 29.9892 19.6562 30.0883 19.846C30.1874 20.0357 30.3307 20.1988 30.506 20.3216C30.6814 20.4443 30.8837 20.5231 31.0959 20.5513C31.3081 20.5794 31.524 20.5561 31.7253 20.4833C32.7612 20.1107 33.6566 19.4269 34.2888 18.5256C34.921 17.6243 35.2592 16.5497 35.257 15.4487V12.7659Z" fill="#4A3AFF"/>
<path d="M28.7931 1.3689C28.7931 1.03887 28.662 0.722353 28.4286 0.488985C28.1952 0.255617 27.8787 0.124512 27.5487 0.124512C27.2187 0.124512 26.9022 0.255617 26.6688 0.488985C26.4354 0.722353 26.3043 1.03887 26.3043 1.3689V2.33206L3.71367 9.62542C3.58849 9.66595 3.47938 9.74511 3.40202 9.85154C3.32466 9.95797 3.28303 10.0862 3.28311 10.2178V17.6306C3.2831 17.763 3.32534 17.8919 3.40367 17.9987C3.482 18.1054 3.59234 18.1844 3.71865 18.2242L5.33635 18.7319C5.46266 18.7716 5.57301 18.8506 5.65134 18.9573C5.72967 19.0641 5.7719 19.193 5.77189 19.3254V22.5496C5.7801 24.03 6.3735 25.447 7.42259 26.4914C8.47168 27.5358 9.8913 28.1229 11.3716 28.1245H11.3978C12.8815 28.116 14.3014 27.5195 15.3462 26.4659C16.3909 25.4122 16.9754 23.9874 16.9714 22.5036V22.3792L26.3043 25.3035V26.2567C26.3043 26.5867 26.4354 26.9032 26.6688 27.1366C26.9022 27.37 27.2187 27.5011 27.5487 27.5011C27.8787 27.5011 28.1952 27.37 28.4286 27.1366C28.662 26.9032 28.7931 26.5867 28.7931 26.2567V1.3689ZM14.4826 22.5098C14.4846 22.9184 14.4061 23.3233 14.2515 23.7015C14.097 24.0797 13.8695 24.4237 13.582 24.714C13.2945 25.0043 12.9527 25.2351 12.576 25.3932C12.1993 25.5514 11.7951 25.6338 11.3866 25.6357H11.3716C10.55 25.6357 9.76171 25.3107 9.17886 24.7316C8.59601 24.1525 8.26593 23.3663 8.26067 22.5447V20.4952C8.26066 20.3975 8.28366 20.3011 8.3278 20.214C8.37195 20.1268 8.43599 20.0513 8.51475 19.9935C8.59351 19.9357 8.68478 19.8973 8.78116 19.8813C8.87754 19.8653 8.97633 19.8723 9.06952 19.9016L14.0471 21.4621C14.1734 21.5018 14.2837 21.5808 14.3621 21.6875C14.4404 21.7943 14.4826 21.9232 14.4826 22.0556V22.5098Z" fill="#4A3AFF"/>
<path d="M3.28206 9.64318C3.28206 9.30904 3.13715 8.98858 2.87921 8.75231C2.62127 8.51604 2.27143 8.3833 1.90665 8.3833C1.54187 8.3833 1.19203 8.51604 0.934096 8.75231C0.676158 8.98858 0.53125 9.30904 0.53125 9.64318L0.538127 18.4623C0.538127 18.6278 0.573703 18.7916 0.642823 18.9445C0.711944 19.0973 0.813255 19.2362 0.940973 19.3532C1.06869 19.4702 1.22031 19.563 1.38719 19.6263C1.55406 19.6896 1.73291 19.7222 1.91353 19.7222H1.90665C2.26578 19.7223 2.61071 19.5937 2.86772 19.364C3.12473 19.1342 3.27344 18.8214 3.28206 18.4926V9.64318Z" fill="white"/>
</svg>
