<svg width="40" height="42" viewBox="0 0 40 42" fill="none" xmlns="http://www.w3.org/2000/svg">
<circle cx="20.0274" cy="20.8807" r="8.78843" fill="white"/>
<path fill-rule="evenodd" clip-rule="evenodd" d="M37.2855 24.3919C38.0252 24.7848 38.5957 25.4052 38.9972 26.0255C39.7792 27.3076 39.7158 28.8792 38.955 30.2646L37.4757 32.746C36.6938 34.0695 35.2357 34.8966 33.7353 34.8966C32.9956 34.8966 32.1715 34.6898 31.4952 34.2762C30.9458 33.9247 30.3118 33.8006 29.6356 33.8006C27.5434 33.8006 25.7894 35.5169 25.726 37.5641C25.726 39.9421 23.7819 41.8032 21.3516 41.8032H18.4776C16.0262 41.8032 14.082 39.9421 14.082 37.5641C14.0398 35.5169 12.2858 33.8006 10.1937 33.8006C9.49628 33.8006 8.86231 33.9247 8.33399 34.2762C7.65775 34.6898 6.81245 34.8966 6.09395 34.8966C4.57241 34.8966 3.11427 34.0695 2.33237 32.746L0.874223 30.2646C0.0923204 28.9205 0.0500554 27.3076 0.831958 26.0255C1.17008 25.4052 1.80405 24.7848 2.52256 24.3919C3.11427 24.1024 3.49465 23.6268 3.85391 23.0685C4.91053 21.2902 4.27656 18.9535 2.48029 17.8989C0.388175 16.7202 -0.288065 14.0941 0.916488 12.0469L2.33237 9.60684C3.55805 7.55968 6.17848 6.83593 8.29173 8.03528C10.1303 9.02785 12.5182 8.36614 13.596 6.60847C13.9341 6.02947 14.1243 5.40912 14.082 4.78876C14.0398 3.9823 14.2722 3.2172 14.6737 2.59685C15.4556 1.31478 16.8715 0.487646 18.4142 0.446289H21.3939C22.9577 0.446289 24.3736 1.31478 25.1555 2.59685C25.5358 3.2172 25.7894 3.9823 25.726 4.78876C25.6838 5.40912 25.874 6.02947 26.2121 6.60847C27.2898 8.36614 29.6778 9.02785 31.5375 8.03528C33.6296 6.83593 36.2712 7.55968 37.4757 9.60684L38.8916 12.0469C40.1173 14.0941 39.441 16.7202 37.3278 17.8989C35.5315 18.9535 34.8975 21.2902 35.9753 23.0685C36.3134 23.6268 36.6938 24.1024 37.2855 24.3919ZM13.9349 21.1449C13.9349 24.3914 16.6187 26.9762 19.9365 26.9762C23.2543 26.9762 25.8748 24.3914 25.8748 21.1449C25.8748 17.8984 23.2543 15.2929 19.9365 15.2929C16.6187 15.2929 13.9349 17.8984 13.9349 21.1449Z" fill="#4A3AFF"/>
</svg>
