<svg width="39" height="33" viewBox="0 0 39 33" fill="none" xmlns="http://www.w3.org/2000/svg">
<rect x="2.10779" y="2.38574" width="34.0457" height="28.1681" fill="white"/>
<rect x="7.2757" y="10.8428" width="23.7094" height="5.66188" rx="0.680278" fill="#4A3AFF"/>
<rect x="7.2757" y="19.2759" width="10.8407" height="7.31969" rx="0.680278" fill="#4A3AFF"/>
<rect x="20.1448" y="19.2759" width="10.8407" height="2.30835" rx="0.680278" fill="#4A3AFF"/>
<rect x="20.1448" y="24.2876" width="10.8407" height="2.30835" rx="0.680278" fill="#4A3AFF"/>
<path d="M0.679138 28.2297C0.679138 29.4717 1.17252 30.6628 2.05074 31.541C2.92895 32.4192 4.12008 32.9126 5.36206 32.9126H33.4596C34.7016 32.9126 35.8927 32.4192 36.771 31.541C37.6492 30.6628 38.1426 29.4717 38.1426 28.2297V5.59552C38.1426 4.35353 37.6492 3.16241 36.771 2.2842C35.8927 1.40598 34.7016 0.912598 33.4596 0.912598H5.36206C4.12008 0.912598 2.92895 1.40598 2.05074 2.2842C1.17252 3.16241 0.679138 4.35353 0.679138 5.59552L0.679138 28.2297ZM23.3133 4.81504C23.306 5.09228 23.2228 5.36222 23.0729 5.59552C22.9427 5.83178 22.7515 6.02878 22.5192 6.16597C22.2869 6.30317 22.0221 6.37554 21.7523 6.37554C21.4825 6.37554 21.2177 6.30317 20.9854 6.16597C20.7532 6.02878 20.5619 5.83178 20.4317 5.59552C20.2818 5.36222 20.1986 5.09228 20.1913 4.81504C20.1984 4.53775 20.2815 4.26775 20.4317 4.03455C20.5619 3.79829 20.7532 3.6013 20.9854 3.4641C21.2177 3.32691 21.4825 3.25454 21.7523 3.25454C22.0221 3.25454 22.2869 3.32691 22.5192 3.4641C22.7515 3.6013 22.9427 3.79829 23.0729 4.03455C23.2231 4.26775 23.3062 4.53775 23.3133 4.81504ZM28.7767 4.81504C28.7694 5.09228 28.6863 5.36222 28.5363 5.59552C28.4061 5.83178 28.2149 6.02878 27.9826 6.16597C27.7503 6.30317 27.4855 6.37554 27.2157 6.37554C26.946 6.37554 26.6811 6.30317 26.4489 6.16597C26.2166 6.02878 26.0254 5.83178 25.8951 5.59552C25.7452 5.36222 25.662 5.09228 25.6547 4.81504C25.6618 4.53775 25.745 4.26775 25.8951 4.03455C26.0254 3.79829 26.2166 3.6013 26.4489 3.4641C26.6811 3.32691 26.946 3.25454 27.2157 3.25454C27.4855 3.25454 27.7503 3.32691 27.9826 3.4641C28.2149 3.6013 28.4061 3.79829 28.5363 4.03455C28.6865 4.26775 28.7696 4.53775 28.7767 4.81504ZM34.2401 4.81504C34.2328 5.09228 34.1497 5.36222 33.9997 5.59552C33.8695 5.83178 33.6783 6.02878 33.446 6.16597C33.2137 6.30317 32.9489 6.37554 32.6791 6.37554C32.4094 6.37554 32.1445 6.30317 31.9123 6.16597C31.68 6.02878 31.4888 5.83178 31.3586 5.59552C31.2086 5.36222 31.1255 5.09228 31.1182 4.81504C31.1252 4.53775 31.2084 4.26775 31.3586 4.03455C31.4908 3.80002 31.6825 3.60444 31.9143 3.46744C32.1461 3.33044 32.4099 3.25685 32.6791 3.25406C32.979 3.25542 33.2722 3.34315 33.5236 3.50676C33.7749 3.67036 33.9738 3.90292 34.0965 4.1766C34.1895 4.37667 34.2385 4.5944 34.2401 4.81504ZM3.80109 9.10616C3.80109 9.00266 3.8422 8.9034 3.91539 8.83021C3.98857 8.75703 4.08783 8.71591 4.19133 8.71591H34.6304C34.7339 8.71591 34.8331 8.75703 34.9063 8.83021C34.9795 8.9034 35.0206 9.00266 35.0206 9.10616V28.2281C35.0206 28.6421 34.8561 29.0391 34.5634 29.3319C34.2707 29.6246 33.8736 29.7891 33.4596 29.7891H5.36206C4.94807 29.7891 4.55103 29.6246 4.25829 29.3319C3.96555 29.0391 3.80109 28.6421 3.80109 28.2281V9.10616Z" fill="#4A3AFF"/>
</svg>
